<svg id="Livello_1" data-name="Livello 1" xmlns="http://www.w3.org/2000/svg" viewBox="0 0 58.89 57.87"><defs><style>.cls-1{fill:#882123;}</style></defs><path class="cls-1" d="M11,10.76A25.36,25.36,0,0,1,29.45,3.17a25.24,25.24,0,0,1,18.47,7.59A24.67,24.67,0,0,1,55.56,29a24.67,24.67,0,0,1-7.64,18.2A25.31,25.31,0,0,1,29.45,54.7,25.43,25.43,0,0,1,11,47.16,24.66,24.66,0,0,1,3.34,29,24.66,24.66,0,0,1,11,10.76Zm24.19,3.06H33.84a20.8,20.8,0,0,0-5,.46,4.86,4.86,0,0,0-3.25,2.38A7.45,7.45,0,0,0,24.92,20c-.06,2.44-.11,3.83-.14,4.16H21.44v5.54h3.48v16h6.86s0,0,0,0V35.91q0-3.66.14-6.17l4.53,0c.12-.82.23-1.69.32-2.61s.15-1.82.18-2.83c0,0,0-.05,0-.05h-2c-.54,0-.94.05-1.19.05a11,11,0,0,1-1.92-.14,3.61,3.61,0,0,0,.05-.59c0-.22,0-.54-.05-1s0-.75,0-1a4.11,4.11,0,0,1,.09-1,1.66,1.66,0,0,1,.32-.78,5.36,5.36,0,0,1,.82-.23,9.74,9.74,0,0,1,1,0c.24,0,.61,0,1.1,0H37s0,0,0,0V13.87Z"/></svg>