<svg id="Livello_1" data-name="Livello 1" xmlns="http://www.w3.org/2000/svg" viewBox="0 0 58.89 57.87"><defs><style>.cls-1{fill:#882123;}</style></defs><path class="cls-1" d="M11.29,11.08A24.9,24.9,0,0,1,29.45,3.63,24.79,24.79,0,0,1,47.6,11.08,24.22,24.22,0,0,1,55.1,29a24.16,24.16,0,0,1-7.5,17.83,24.79,24.79,0,0,1-18.15,7.45,24.9,24.9,0,0,1-18.16-7.45A24.42,24.42,0,0,1,3.8,29,24.48,24.48,0,0,1,11.29,11.08ZM46.78,24.71c-.16-2.87-.23-4.7-.23-5.49v-.41a5.71,5.71,0,0,0-5.4-5.08H36.4q-1.56,0-7.27-.09c-1.5,0-2.85,0-4.07,0s-2.24,0-3.16,0V22c-.64-.06-1.06-.09-1.28-.09l-.09-8.28h-.87a.2.2,0,0,0,0,.14V22c-.64-.06-1.07-.09-1.28-.09s-.14,0-.14,0q-.09-5.67-.09-7.45v-.59a1.13,1.13,0,0,0-.41.09,1.62,1.62,0,0,1-.37.09v.23q0,1.41-.14,7.68c-.61-.06-1-.09-1.19-.09s-.13,0-.13,0V15Q13,16.47,13,22.83c0,.61,0,1.24,0,1.88H23.64l1.14-.83A8.45,8.45,0,0,1,29.86,22a9.08,9.08,0,0,1,4.94,1.64,8.69,8.69,0,0,1,1.41,1.06ZM41.29,47.48c3.35-.46,5.17-2.43,5.44-5.9q.09-1.42.09-3.75c0-1.16,0-2.48,0-4-.06-2.1-.1-3.89-.1-5.35,0-1.07,0-2,0-2.7l-8.14.05L37,25.8a11.65,11.65,0,0,1,1.46,5.26,7,7,0,0,1-.14,1.37,8,8,0,0,1-4.3,5.9,8.35,8.35,0,0,1-4,1.1,8.54,8.54,0,0,1-3.89-1,8.22,8.22,0,0,1-4.71-5.94A7.63,7.63,0,0,1,21.31,31a11.57,11.57,0,0,1,1.46-5.22c-1.74-.06-3.41-.09-5-.09s-3.17,0-4.66.09q0,1.38-.05,8,0,7.14.05,8,.36,4,4.62,5.48a36.2,36.2,0,0,0,6.53.28ZM30.09,24.16c-.31,0-.64,0-1,0a6.27,6.27,0,0,0-4.89,3.25,6.5,6.5,0,0,0-1,2.93v.36a6.63,6.63,0,0,0,6.63,6.68,6,6,0,0,0,.73-.05c3.63-.3,5.59-2.27,5.9-5.9a5.49,5.49,0,0,0,0-.68A6.71,6.71,0,0,0,35.39,27,6.11,6.11,0,0,0,30.09,24.16Zm-5,6.77v-.37c.12-2.65,1.46-4.18,4-4.57a5.54,5.54,0,0,1,1-.09A4.54,4.54,0,0,1,33.1,27a4.66,4.66,0,0,1,1.7,3.38v.37a4.48,4.48,0,0,1-2.93,4.39,5.5,5.5,0,0,1-2.19.5,4.53,4.53,0,0,1-3.21-1.42A4.46,4.46,0,0,1,25.06,30.93ZM43.35,22a6.19,6.19,0,0,1-2.61.27c-1.49,0-2.33-.1-2.51-.32A8.39,8.39,0,0,1,38,19.31c0-1.55.09-2.41.28-2.56a7.74,7.74,0,0,1,2.15-.18h.59a5.08,5.08,0,0,1,2.33.27,6.08,6.08,0,0,1,.28,2.65A5.18,5.18,0,0,1,43.35,22Z"/></svg>