<svg id="Livello_1" data-name="Livello 1" xmlns="http://www.w3.org/2000/svg" viewBox="0 0 93.45 98.04"><defs><style>.cls-1{fill:#f2ca59;}.cls-2{fill:#882123;}.cls-3{fill:#536453;}</style></defs><polygon class="cls-1" points="42.4 40.82 34.27 12.42 55.24 5.99 42.4 40.82"/><path class="cls-2" d="M52.76,32.47,30.46,14.69,45,.91ZM32.14,14.62l18.78,15L44.39,3Z"/><polygon class="cls-1" points="42.45 50.75 50.58 79.16 29.6 85.58 42.45 50.75"/><path class="cls-2" d="M39.83,90.67,32.08,59.11,54.39,76.88ZM33.93,62l6.52,26.56L52.7,77Z"/><polygon class="cls-2" points="47.77 46.18 76.17 38.06 82.6 59.03 47.77 46.18"/><path class="cls-3" d="M87.69,48.8,56.13,56.55,73.9,34.25ZM59,54.7l26.57-6.52L74,35.93Z"/><polygon class="cls-2" points="38.8 46.18 10.4 54.31 3.97 33.33 38.8 46.18"/><path class="cls-3" d="M12.67,58.11-1.12,43.56l31.57-7.75ZM1,44.18,12.6,56.43l15-18.77Z"/></svg>