<svg id="Livello_1" data-name="Livello 1" xmlns="http://www.w3.org/2000/svg" viewBox="0 0 58.89 57.87"><defs><style>.cls-1{fill:#882123;}</style></defs><path class="cls-1" d="M10.77,9.74A24.83,24.83,0,0,1,28.88,2.33,24.83,24.83,0,0,1,47,9.74a24.17,24.17,0,0,1,7.45,17.83A24.28,24.28,0,0,1,47,45.41a24.82,24.82,0,0,1-18.11,7.4,24.82,24.82,0,0,1-18.11-7.4,24.18,24.18,0,0,1-7.5-17.84A24.06,24.06,0,0,1,10.77,9.74Zm36,18.57c0-5.25-.41-8.52-1.24-9.83s-3.87-2-9.42-2.2c-2.16-.09-4.08-.14-5.76-.14-1,0-1.92,0-2.74.05-.55,0-1.47,0-2.75,0s-2.25,0-2.92.05c-3.08.15-4.82.27-5.21.37q-3.85,1-3.85,11.47c0,5.37.51,8.66,1.51,9.88s3.25,1.68,7.18,1.83q4.94.18,9,.18c2.26,0,4.3,0,6.13-.14a43.15,43.15,0,0,0,7-.59Q46.75,38.05,46.76,28.31Zm-11.3-.64c-1.06.61-2.57,1.41-4.52,2.42q-3.3,1.69-4.53,2.38l0-.23q0-1.74-.13-9.28c1,.48,2.53,1.28,4.57,2.37S34.4,27.15,35.46,27.67Z"/></svg>